<?xml version="1.0" standalone="no"?>
<!DOCTYPE svg PUBLIC "-//W3C//DTD SVG 20010904//EN"
 "http://www.w3.org/TR/2001/REC-SVG-20010904/DTD/svg10.dtd">
<svg version="1.0" xmlns="http://www.w3.org/2000/svg"
 width="531.000000pt" height="531.000000pt" viewBox="0 0 531.000000 531.000000"
 preserveAspectRatio="xMidYMid meet">
<metadata>
Created by potrace 1.14, written by Peter Selinger 2001-2017
</metadata>
<g transform="translate(0.000000,531.000000) scale(0.100000,-0.100000)"
fill="#000000" stroke="none">
<path d="M819 4330 c-1 -3 -2 -138 -3 -300 l-1 -295 -232 0 c-128 -1 -235 -4
-239 -7 -8 -8 -9 -356 -1 -364 3 -3 111 -7 239 -8 l232 -1 2 -825 c1 -569 4
-833 12 -851 6 -15 9 -29 6 -31 -7 -8 35 -126 63 -175 14 -26 39 -61 55 -78
15 -16 28 -33 28 -36 0 -13 106 -80 156 -98 28 -11 77 -23 110 -27 68 -8 702
-12 714 -4 9 5 12 91 11 275 l-1 100 -276 -1 c-174 -1 -293 3 -320 10 -60 15
-107 55 -122 102 -8 28 -12 253 -12 840 l0 802 302 0 c167 0 331 1 366 1 l62
1 0 185 c0 185 0 185 -22 186 -13 0 -176 2 -363 2 l-340 2 -2 30 c0 17 -2 152
-2 300 l-1 270 -210 0 c-116 1 -211 -2 -211 -5z"/>
<path d="M3727 3733 c-1 0 -40 -4 -87 -7 -429 -29 -660 -233 -707 -626 -10
-83 -10 -1165 0 -1245 33 -262 141 -430 341 -530 50 -25 102 -47 116 -50 14
-3 54 -12 90 -20 36 -8 97 -17 135 -21 86 -8 401 -8 470 -1 113 13 153 19 220
38 220 63 367 198 434 399 47 141 50 188 50 810 0 322 -4 605 -9 630 -4 25
-11 61 -14 82 -13 85 -75 229 -122 284 -14 16 -29 34 -32 39 -14 21 -98 84
-153 113 -53 29 -160 66 -218 77 -14 3 -37 7 -51 10 -55 12 -454 27 -463 18z
m408 -392 c61 -15 135 -61 168 -105 14 -18 34 -57 44 -87 16 -50 18 -103 18
-679 l0 -625 -33 -68 c-24 -47 -47 -78 -75 -99 -90 -65 -159 -77 -430 -73
-233 3 -236 3 -310 39 -59 28 -83 47 -115 93 -53 74 -53 83 -50 766 3 625 3
632 25 677 41 86 129 149 235 169 67 12 465 6 523 -8z"/>
</g>
</svg>
